<svg width="156" height="70" viewBox="0 0 156 70" fill="none" xmlns="http://www.w3.org/2000/svg">
<path d="M153.189 3.15575H4.0083V65.9836H153.189V3.15575Z" fill="white" stroke="black" stroke-width="0.573771"/>
<path fill-rule="evenodd" clip-rule="evenodd" d="M0.278809 35V70H77.7378H155.197V35V0H77.7378H0.278809V35ZM18.4622 8.85156C19.7365 10.333 19.787 10.7725 19.787 20.401V30.4098H17.2188H14.6506L14.4934 20.7992C14.3609 12.709 14.2002 11.1885 13.4755 11.1885C12.7239 11.1885 12.6149 14.2484 12.6149 35.2869C12.6149 56.3253 12.7239 59.3852 13.4755 59.3852C14.2036 59.3852 14.3603 57.7695 14.4928 48.9139L14.6489 38.4426H17.2182H19.787V49.0952C19.787 62.6276 19.3458 63.6369 13.4159 63.6702C10.7828 63.6851 9.92561 63.4338 8.68225 62.2816L7.16405 60.8742V35.7287C7.16405 13.5616 7.27307 10.4271 8.0861 9.26697C9.37192 7.4309 11.0072 6.86172 14.3023 7.10385C16.5165 7.26623 17.4277 7.64893 18.4622 8.85156ZM34.0974 7.72869C35.0097 8.20033 36.0086 9.37541 36.3644 10.3961C37.3903 13.3402 37.2336 58.0025 36.1882 60.5052C35.156 62.9753 33.7945 63.6885 30.1086 63.6885C27.6121 63.6885 26.8995 63.4303 25.4805 62.0114L23.8034 60.3343V35.4584C23.8034 8.57672 23.7896 8.70008 26.8771 7.45443C28.8124 6.67295 32.3141 6.80606 34.0974 7.72869ZM67.9952 7.75164C68.9167 8.22844 69.9368 9.11492 70.2616 9.72254C70.6179 10.3881 70.8526 16.0811 70.8526 24.0605V37.2951H66.8362H62.8198V48.436C62.8198 59.7513 62.9707 60.5489 64.9714 59.8133C65.5073 59.6159 65.6886 57.0305 65.6886 49.5698V39.5902H68.2706H70.8526V49.6042C70.8526 55.7211 70.6047 60.1621 70.2157 61.0165C69.3579 62.899 67.4105 63.6885 63.6271 63.6885C61.0428 63.6885 60.2177 63.4338 59.0645 62.2799L57.6559 60.8719V35.6466C57.6559 21.7729 57.8234 9.98475 58.0288 9.45057C58.9067 7.16238 64.8854 6.14393 67.9952 7.75164ZM114.269 8.83721L115.607 10.3921V36.7534V63.1147H113.359C112.123 63.1147 111.01 62.8078 110.885 62.4331C110.724 61.95 110.256 62.0332 109.275 62.72C107.456 63.9938 106.329 63.9416 104.496 62.4991L102.984 61.3102V49.3024C102.984 35.8664 102.536 37.3766 107.783 33.0957L110.469 30.9044L110.312 20.7596C110.163 11.0497 110.107 10.6148 109.008 10.6148C107.913 10.6148 107.854 11.0497 107.704 20.2254L107.546 29.8361H105.265H102.984V19.9047C102.984 12.8215 103.189 9.71566 103.701 9.07418C105.038 7.39762 106.702 6.85254 109.822 7.06771C112.342 7.24213 113.186 7.57721 114.269 8.83721ZM148.122 8.83721C149.44 10.3698 149.459 10.5832 149.459 23.8436V37.2951H145.443H141.426V48.436C141.426 59.7513 141.577 60.5489 143.578 59.8133C144.114 59.6159 144.295 57.0305 144.295 49.5698V39.5902H146.877H149.459V49.6042C149.459 55.7211 149.211 60.1621 148.822 61.0165C147.964 62.899 146.017 63.6885 142.234 63.6885C139.649 63.6885 138.824 63.4338 137.671 62.2799L136.262 60.8719L136.281 35.4561C136.295 15.4224 136.458 9.83156 137.05 9.05238C138.232 7.49516 140.31 6.87951 143.675 7.08893C146.21 7.24672 147.032 7.56975 148.122 8.83721ZM50.8509 8.59393C51.6841 8.98582 52.652 9.93598 53.0026 10.7048C53.4363 11.6579 53.6395 19.67 53.6395 35.8555V59.6079L52.255 61.2179C50.9577 62.7263 50.5422 62.8405 45.6566 63.0281L40.4427 63.2289V35.7264C40.4427 20.6001 40.6367 8.02475 40.8731 7.78148C41.4979 7.13885 49.0705 7.75566 50.8509 8.59393ZM79.1005 9.61065C79.2744 10.7943 79.5808 18.2172 79.7816 26.1066C80.4368 51.8608 80.7266 52.3032 82.2236 29.8361C82.9488 18.9488 83.6614 9.46033 83.8066 8.75C84.0418 7.60131 84.4159 7.45902 87.205 7.45902C90.8967 7.45902 90.7142 7.06541 91.1904 16.0656C91.366 19.3791 91.8927 27.6414 92.3609 34.4262C92.8297 41.2111 93.2164 47.7738 93.221 49.0098C93.2256 50.2457 93.3467 51.1402 93.4895 50.9967C93.6324 50.8538 94.03 42.097 94.3731 31.5367C94.7163 20.9765 95.1311 11.2384 95.2958 9.89754C95.5907 7.49229 95.6257 7.45902 97.8548 7.45902C100.02 7.45902 100.115 7.53762 100.126 9.32377C100.145 12.5168 97.7922 58.1029 97.4755 60.6762L97.1754 63.1147H93.5756H89.9752L88.6125 43.1762C87.0599 20.4618 86.9141 20.5089 85.5061 44.1803C84.9903 52.8586 84.4308 60.6693 84.2627 61.5369C83.9713 63.047 83.8123 63.1147 80.543 63.1147C78.3168 63.1147 77.0476 62.8652 76.8972 62.3975C76.4566 61.0279 73.6824 8.56008 74.0215 8.01098C74.2091 7.70746 75.3578 7.45902 76.5736 7.45902C78.6897 7.45902 78.7981 7.55139 79.1005 9.61065ZM123.87 10.4713C124.042 12.1284 124.598 21.7453 125.105 31.8425C125.612 41.9403 126.092 50.2675 126.172 50.3472C126.252 50.427 126.764 41.3907 127.309 30.2664C127.855 19.1427 128.42 9.46033 128.564 8.75C128.782 7.67131 129.201 7.45902 131.109 7.45902H133.394L133.391 9.89754C133.389 11.2384 132.616 23.3094 131.672 36.7213C130.729 50.1332 129.956 61.5581 129.954 62.1107C129.952 62.9627 129.392 63.1147 126.263 63.1147H122.575L122.26 60.1025C121.209 50.0597 118.411 9.02885 118.721 8.21984C118.896 7.76541 119.927 7.45902 121.285 7.45902H123.557L123.87 10.4713ZM29.35 11.2843C29.1395 11.4943 28.9673 22.3237 28.9673 35.3489C28.9673 59.4736 29.1412 61.4175 31.0627 58.7897C31.6801 57.9451 31.8362 53.2321 31.8362 35.4263C31.8362 14.2387 31.6124 10.9016 30.19 10.9016C29.9387 10.9016 29.56 11.0738 29.35 11.2843ZM62.8198 22.3369V33.8525H64.2663H65.7127L65.5573 22.5205C65.4029 11.2591 65.3937 11.1874 64.1108 11.0049L62.8198 10.8219V22.3369ZM141.426 22.377V33.8525H142.861H144.295V22.377V10.9016H142.861H141.426V22.377ZM45.6067 35.2869C45.6067 59.842 45.6709 60.5259 47.787 58.4098C48.7756 57.4212 48.7756 13.1525 47.787 12.1639C45.6709 10.0479 45.6067 10.7318 45.6067 35.2869ZM108.809 36.342C107.589 37.6393 107.553 38.0404 107.704 48.5347C107.86 59.2963 107.871 59.387 109.152 59.5688L110.443 59.7519V47.3762C110.443 40.569 110.358 35 110.256 35C110.153 35 109.502 35.6036 108.809 36.342Z" fill="url(#paint0_linear_2_81)"/>
<defs>
<linearGradient id="paint0_linear_2_81" x1="3.72143" y1="-1.81118e-06" x2="189.049" y2="109.016" gradientUnits="userSpaceOnUse">
<stop stop-color="#240046"/>
<stop offset="1" stop-color="#7B2CBF"/>
</linearGradient>
</defs>
</svg>
